<svg xmlns="http://www.w3.org/2000/svg" viewBox="0 0 320 240" width="320" height="240" role="img" aria-label="Pin Header Connector">
  <rect width="320" height="240" rx="14" fill="#fbfcfd"/>
  <g stroke="#e6e8eb" stroke-width="1">
    <line x1="20" y1="20" x2="300" y2="20"/><line x1="20" y1="220" x2="300" y2="220"/>
    <line x1="20" y1="20" x2="20" y2="220"/><line x1="300" y1="20" x2="300" y2="220"/>
  </g>
  <text x="160" y="34" font-family="Segoe UI, Arial, sans-serif" font-size="15" font-weight="700" fill="#1d1d1f" text-anchor="middle">Pin Header Connector</text>
  <text x="160" y="210" font-family="Segoe UI, Arial, sans-serif" font-size="11" fill="#8a8f98" text-anchor="middle">2.54mm pitch, male</text>
  <rect x="110" y="100" width="8" height="34" rx="2" fill="#eafaf0" stroke="#30D158" stroke-width="2"/><line x1="114" y1="134" x2="114" y2="150" stroke="#30D158" stroke-width="3"/><rect x="128" y="100" width="8" height="34" rx="2" fill="#eafaf0" stroke="#30D158" stroke-width="2"/><line x1="132" y1="134" x2="132" y2="150" stroke="#30D158" stroke-width="3"/><rect x="146" y="100" width="8" height="34" rx="2" fill="#eafaf0" stroke="#30D158" stroke-width="2"/><line x1="150" y1="134" x2="150" y2="150" stroke="#30D158" stroke-width="3"/><rect x="164" y="100" width="8" height="34" rx="2" fill="#eafaf0" stroke="#30D158" stroke-width="2"/><line x1="168" y1="134" x2="168" y2="150" stroke="#30D158" stroke-width="3"/><rect x="182" y="100" width="8" height="34" rx="2" fill="#eafaf0" stroke="#30D158" stroke-width="2"/><line x1="186" y1="134" x2="186" y2="150" stroke="#30D158" stroke-width="3"/><rect x="200" y="100" width="8" height="34" rx="2" fill="#eafaf0" stroke="#30D158" stroke-width="2"/><line x1="204" y1="134" x2="204" y2="150" stroke="#30D158" stroke-width="3"/><rect x="100" y="92" width="124" height="14" rx="3" fill="#dfeee5" stroke="#30D158" stroke-width="2"/>
</svg>